<svg xmlns="http://www.w3.org/2000/svg" width="502.785" height="77.8" viewBox="0 0 502.785 77.8">
  <path id="ABOUT_US" data-name="ABOUT US" d="M170.7-75.9a34.887,34.887,0,0,1,13.635,2.617,29.547,29.547,0,0,1,10.638,7.6c6.1,6.835,9.327,16.65,9.327,28.383,0,11.772-3.224,21.689-9.323,28.679A29.855,29.855,0,0,1,184.34-.813,33.923,33.923,0,0,1,170.7,1.9,33.923,33.923,0,0,1,157.06-.813a29.856,29.856,0,0,1-10.636-7.808c-6.1-6.989-9.323-16.906-9.323-28.679s3.225-21.6,9.327-28.421A29.469,29.469,0,0,1,157.066-73.3,35.027,35.027,0,0,1,170.7-75.9Zm0,76.8c19.8,0,32.6-14.994,32.6-38.2,0-22.841-12.8-37.6-32.6-37.6-20.108,0-32.6,14.408-32.6,37.6S150.9.9,170.7.9Zm305-76.8a34.274,34.274,0,0,1,12.763,2.5,32.2,32.2,0,0,1,10.793,7.15l.313.318-8.1,10.042-.39-.324C486.16-60.3,481.273-62.2,475.7-62.2a12.659,12.659,0,0,0-7.443,1.967A6.338,6.338,0,0,0,465.6-54.9c0,4.805,4.693,6.664,10.635,9.017l.56.222,9.7,4.1c4.946,2.033,8.552,4.511,11.02,7.572a18.1,18.1,0,0,1,3.1,5.7A23.223,23.223,0,0,1,501.7-21a21.176,21.176,0,0,1-7.358,16.114A25.922,25.922,0,0,1,485.627.074,35.657,35.657,0,0,1,474,1.9,40.115,40.115,0,0,1,459.3-.948a39.065,39.065,0,0,1-12.648-8.091l-.337-.323,9.136-10.963.387.357C461.3-14.916,468.2-11.9,474.3-11.9c7.181,0,11.3-2.916,11.3-8a6.42,6.42,0,0,0-2.678-5.461,34.245,34.245,0,0,0-7.417-3.782l-.7-.3-9.9-4.2a27.655,27.655,0,0,1-10.495-7.195A19.5,19.5,0,0,1,449.6-54a20.237,20.237,0,0,1,7.352-15.619,25.367,25.367,0,0,1,8.259-4.612A32.363,32.363,0,0,1,475.7-75.9Zm22.529,10.036A32.181,32.181,0,0,0,475.7-74.9c-14.544,0-25.1,8.79-25.1,20.9,0,11.047,7.989,16.668,14.691,19.438l9.9,4.2.7.3a34.8,34.8,0,0,1,7.646,3.917A7.431,7.431,0,0,1,486.6-19.9a7.893,7.893,0,0,1-3.215,6.6c-2.145,1.592-5.2,2.4-9.085,2.4-6.2,0-13.169-2.974-18.75-7.979l-7.865,9.438A38.867,38.867,0,0,0,474,.9c15.721,0,26.7-9.006,26.7-21.9,0-9.433-4.5-15.489-14.59-19.638l-9.7-4.1-.543-.215a37.866,37.866,0,0,1-7.852-3.77A7.219,7.219,0,0,1,464.6-54.9a7.3,7.3,0,0,1,3.068-6.142A13.628,13.628,0,0,1,475.7-63.2a22.485,22.485,0,0,1,8.562,1.624,27.707,27.707,0,0,1,7.065,4.27ZM22.935-74.6h18.13l.112.347L65.186.5H48.618l-5.2-19H20.182l-5.2,19H-1.085Zm17.4,1H23.665L.285-.5H14.218l5.2-19H44.182l5.2,19H63.814Zm32.365-1h25c8.323,0,14.835,1.361,19.355,4.045C122.327-67.425,125-62.461,125-55.8a19.561,19.561,0,0,1-2.76,9.984,14.885,14.885,0,0,1-6.974,6.221,21.337,21.337,0,0,1,4.926,1.99,16.869,16.869,0,0,1,4.537,3.693A18.034,18.034,0,0,1,128.8-21.8a21.4,21.4,0,0,1-2.248,9.922,19.29,19.29,0,0,1-6.2,6.976C115.287-1.368,108.113.5,99.6.5H72.7ZM99.6-.5c8.307,0,15.284-1.806,20.176-5.222C125.1-9.44,127.8-14.85,127.8-21.8c0-8.9-4.8-14.944-13.516-17.014L113.9-38.9v-1.25l.335-.117a13.717,13.717,0,0,0,7.149-6.062A18.547,18.547,0,0,0,124-55.8c0-6.283-2.508-10.958-7.455-13.9-4.364-2.591-10.7-3.9-18.845-3.9h-24V-.5ZM217.4-74.6h15.8V-32c0,7.326,1.2,12.486,3.675,15.775,2.189,2.911,5.4,4.325,9.825,4.325,4.54,0,7.845-1.417,10.1-4.331,2.554-3.294,3.8-8.452,3.8-15.769V-74.6h15.2v41.3a58.29,58.29,0,0,1-1.943,15.938A28.432,28.432,0,0,1,268.164-6.4a22.612,22.612,0,0,1-9.183,6.3A34.863,34.863,0,0,1,246.7,1.9,34.936,34.936,0,0,1,234.43-.094a22.965,22.965,0,0,1-9.255-6.3,28.469,28.469,0,0,1-5.786-10.965A57.148,57.148,0,0,1,217.4-33.3Zm14.8,1H218.4v40.3c0,11.765,2.532,20.6,7.525,26.244C230.591-1.777,237.581.9,246.7.9c9.265,0,16.04-2.6,20.711-7.954,4.9-5.618,7.389-14.448,7.389-26.246V-73.6H261.6V-32a41.25,41.25,0,0,1-1.027,9.837,17.547,17.547,0,0,1-2.977,6.545,11.481,11.481,0,0,1-4.742,3.628A16.105,16.105,0,0,1,246.7-10.9c-4.759,0-8.234-1.545-10.625-4.724C233.468-19.092,232.2-24.449,232.2-32Zm54.3-1h57.6v13.4h-21V.5H307.3V-61.2H286.5Zm56.6,1H287.5v11.4h20.8V-.5h13.8V-62.2h21Zm34.3-1h15.8V-32c0,7.326,1.2,12.486,3.675,15.775,2.189,2.911,5.4,4.325,9.825,4.325,4.54,0,7.845-1.417,10.1-4.331,2.554-3.294,3.8-8.452,3.8-15.769V-74.6h15.2v41.3a58.289,58.289,0,0,1-1.943,15.938A28.432,28.432,0,0,1,428.164-6.4a22.611,22.611,0,0,1-9.183,6.3A34.863,34.863,0,0,1,406.7,1.9,34.936,34.936,0,0,1,394.43-.094a22.965,22.965,0,0,1-9.255-6.3,28.469,28.469,0,0,1-5.786-10.965A57.149,57.149,0,0,1,377.4-33.3Zm14.8,1H378.4v40.3c0,11.765,2.532,20.6,7.525,26.244C390.591-1.777,397.581.9,406.7.9c9.265,0,16.04-2.6,20.711-7.954,4.9-5.618,7.389-14.448,7.389-26.246V-73.6H421.6V-32a41.25,41.25,0,0,1-1.027,9.837,17.547,17.547,0,0,1-2.977,6.545,11.481,11.481,0,0,1-4.742,3.628A16.105,16.105,0,0,1,406.7-10.9c-4.759,0-8.234-1.545-10.625-4.724C393.468-19.092,392.2-24.449,392.2-32ZM31.1-63.3h1.282l.1.373c.653,2.489,1.309,5.072,1.942,7.57,1.411,5.564,2.871,11.317,4.453,16.614l0,.012L41.254-30H22.346l2.373-8.737C27-46.7,29.172-55.065,31.013-62.914Zm6.815,24.837c-1.587-5.315-3.049-11.076-4.463-16.648-.554-2.183-1.124-4.43-1.694-6.622-1.8,7.585-3.892,15.608-6.081,23.268L23.654-31H39.946ZM87.5-63.2h9.3c4.671,0,8.028.718,10.263,2.2,2.38,1.573,3.537,4,3.537,7.4a8.884,8.884,0,0,1-3.421,7.459c-2.371,1.819-5.93,2.741-10.579,2.741H87.5Zm9.1,18.8c4.424,0,7.778-.853,9.971-2.534A7.932,7.932,0,0,0,109.6-53.6c0-3.048-1.01-5.2-3.088-6.57S101.269-62.2,96.8-62.2H88.5v17.8Zm74.1-18.8a16.043,16.043,0,0,1,13.531,6.946c3.25,4.538,4.969,11.092,4.969,18.954s-1.717,14.483-4.964,19.16A15.943,15.943,0,0,1,170.7-10.9a15.943,15.943,0,0,1-13.536-7.24c-3.248-4.677-4.964-11.3-4.964-19.16s1.718-14.416,4.969-18.954A16.043,16.043,0,0,1,170.7-63.2Zm0,51.3a14.98,14.98,0,0,0,12.714-6.81c3.131-4.508,4.786-10.937,4.786-18.59s-1.653-14-4.781-18.371A15.079,15.079,0,0,0,170.7-62.2a15.079,15.079,0,0,0-12.719,6.529C154.853-51.3,153.2-44.952,153.2-37.3s1.655,14.081,4.786,18.59A14.98,14.98,0,0,0,170.7-11.9ZM87.5-33.5H98.3c5.337,0,9.228.827,11.894,2.528a8.728,8.728,0,0,1,3.148,3.4A10.633,10.633,0,0,1,114.4-22.7c0,3.957-1.421,6.967-4.224,8.946C107.494-11.86,103.5-10.9,98.3-10.9H87.5ZM98.3-11.9c4.988,0,8.789-.9,11.3-2.671s3.8-4.516,3.8-8.129c0-3.391-1.225-5.821-3.744-7.429-2.5-1.6-6.215-2.371-11.356-2.371H88.5v20.6Z" transform="translate(1.085 75.9)" fill="#7db4e8"/>
</svg>
