<svg xmlns="http://www.w3.org/2000/svg" width="47.169" height="47.171" viewBox="0 0 47.169 47.171">
  <g id="contact-icon1" transform="translate(-189.476 -135.33)">
    <g id="组_4" data-name="组 4" transform="translate(213.017 147.249)">
      <path id="路径_21" data-name="路径 21" d="M210.536,151.772h-2.518a9.2,9.2,0,0,0-9.192-9.19v-2.518A11.721,11.721,0,0,1,210.536,151.772Z" transform="translate(-198.826 -140.064)" fill="#236eb4"/>
    </g>
    <g id="组_5" data-name="组 5" transform="translate(213.017 142.06)">
      <path id="路径_22" data-name="路径 22" d="M215.723,154.9H213.2a14.4,14.4,0,0,0-14.379-14.379V138A16.917,16.917,0,0,1,215.723,154.9Z" transform="translate(-198.826 -138.003)" fill="#236eb4"/>
    </g>
    <g id="组_6" data-name="组 6" transform="translate(213.017 137.123)">
      <path id="路径_23" data-name="路径 23" d="M220.663,157.876h-2.518a19.338,19.338,0,0,0-19.319-19.316v-2.518A21.86,21.86,0,0,1,220.663,157.876Z" transform="translate(-198.826 -136.042)" fill="#236eb4"/>
    </g>
    <g id="组_7" data-name="组 7" transform="translate(189.476 135.33)">
      <path id="路径_24" data-name="路径 24" d="M229.035,182.5c-5.582,0-16.982-1.491-27.527-12.035-12.435-12.435-12.277-26.051-11.932-29.929a2.585,2.585,0,0,1,1.815-2.246l9.011-2.825a2.917,2.917,0,0,1,3.762,2.349l2.926,12.632a2.979,2.979,0,0,1-.6,2.369l-3.12,3.283a42.276,42.276,0,0,0,12.438,12.46l2.649-2.953a2.968,2.968,0,0,1,2.422-.753l13.364,2.971a2.872,2.872,0,0,1,1.959,1.329,2.923,2.923,0,0,1,.307,2.42l-2.827,9.011a2.585,2.585,0,0,1-2.243,1.815C230.851,182.453,230.035,182.5,229.035,182.5Zm-27.756-44.65a.429.429,0,0,0-.123.018l-9.011,2.825c-.38,3.668-.519,16.328,11.144,27.993s24.317,11.519,27.93,11.207l2.89-9.072a.406.406,0,0,0-.327-.524l-13.364-2.971a.98.98,0,0,0-.232.1L216.28,171.8l-.891-.539a44.552,44.552,0,0,1-14.679-14.676l-.5-.823,4.386-4.605a.628.628,0,0,0,.018-.237l-2.923-12.634a.493.493,0,0,0-.2-.378A.415.415,0,0,0,201.279,137.85Z" transform="translate(-189.476 -135.33)" fill="#236eb4"/>
    </g>
  </g>
</svg>
