<svg xmlns="http://www.w3.org/2000/svg" width="58" height="59.734" viewBox="0 0 58 59.734">
  <g id="contact-icon2" transform="translate(-145.74 -217.701)">
    <g id="组_9" data-name="组 9" transform="translate(171.101 263.46)">
      <rect id="矩形_41" data-name="矩形 41" width="6.947" height="2.646" fill="#236eb4"/>
    </g>
    <g id="组_10" data-name="组 10" transform="translate(171.1 222.994)">
      <path id="路径_26" data-name="路径 26" d="M185.484,262.813h-7.336v-2.646h7.336l-.167-37.986-29.994.167V219.7h30.161a2.481,2.481,0,0,1,2.48,2.48v38.155A2.481,2.481,0,0,1,185.484,262.813Z" transform="translate(-155.323 -219.701)" fill="#236eb4"/>
    </g>
    <g id="组_11" data-name="组 11" transform="translate(145.74 222.994)">
      <path id="路径_27" data-name="路径 27" d="M150.067,262.813H148.22a2.481,2.481,0,0,1-2.48-2.477V222.181a2.481,2.481,0,0,1,2.48-2.48h2.234v2.646H148.22l.167,37.988,1.68-.169Z" transform="translate(-145.74 -219.701)" fill="#236eb4"/>
    </g>
    <g id="组_12" data-name="组 12" transform="translate(151.583 217.701)">
      <path id="路径_28" data-name="路径 28" d="M162.159,271.4H151.933a3.987,3.987,0,0,1-3.985-3.983V221.684a3.987,3.987,0,0,1,3.985-3.983h10.226a3.987,3.987,0,0,1,3.983,3.983v45.732A3.987,3.987,0,0,1,162.159,271.4Zm-10.226-51.051a1.34,1.34,0,0,0-1.339,1.336v45.732a1.338,1.338,0,0,0,1.339,1.336h10.226a1.336,1.336,0,0,0,1.336-1.336V221.684a1.338,1.338,0,0,0-1.336-1.336Z" transform="translate(-147.948 -217.701)" fill="#236eb4"/>
    </g>
    <g id="组_13" data-name="组 13" transform="translate(173.527 228.286)">
      <path id="路径_29" data-name="路径 29" d="M181.161,233.776H156.24V221.7h24.921Zm-22.274-2.646h19.628v-6.783H158.886Z" transform="translate(-156.24 -221.701)" fill="#236eb4"/>
    </g>
    <g id="组_18" data-name="组 18" transform="translate(176.724 243.033)">
      <g id="组_14" data-name="组 14">
        <rect id="矩形_42" data-name="矩形 42" width="2.646" height="2.646" fill="#236eb4"/>
      </g>
      <g id="组_15" data-name="组 15" transform="translate(5.293)">
        <rect id="矩形_43" data-name="矩形 43" width="2.646" height="2.646" fill="#236eb4"/>
      </g>
      <g id="组_16" data-name="组 16" transform="translate(10.585)">
        <rect id="矩形_44" data-name="矩形 44" width="2.646" height="2.646" fill="#236eb4"/>
      </g>
      <g id="组_17" data-name="组 17" transform="translate(15.878)">
        <rect id="矩形_45" data-name="矩形 45" width="2.646" height="2.646" fill="#236eb4"/>
      </g>
    </g>
    <g id="组_23" data-name="组 23" transform="translate(176.724 248.326)">
      <g id="组_19" data-name="组 19">
        <rect id="矩形_46" data-name="矩形 46" width="2.646" height="2.646" fill="#236eb4"/>
      </g>
      <g id="组_20" data-name="组 20" transform="translate(5.293)">
        <rect id="矩形_47" data-name="矩形 47" width="2.646" height="2.646" fill="#236eb4"/>
      </g>
      <g id="组_21" data-name="组 21" transform="translate(10.585)">
        <rect id="矩形_48" data-name="矩形 48" width="2.646" height="2.646" fill="#236eb4"/>
      </g>
      <g id="组_22" data-name="组 22" transform="translate(15.878)">
        <rect id="矩形_49" data-name="矩形 49" width="2.646" height="2.646" fill="#236eb4"/>
      </g>
    </g>
    <g id="组_28" data-name="组 28" transform="translate(176.724 253.618)">
      <g id="组_24" data-name="组 24">
        <rect id="矩形_50" data-name="矩形 50" width="2.646" height="2.646" fill="#236eb4"/>
      </g>
      <g id="组_25" data-name="组 25" transform="translate(5.293)">
        <rect id="矩形_51" data-name="矩形 51" width="2.646" height="2.646" fill="#236eb4"/>
      </g>
      <g id="组_26" data-name="组 26" transform="translate(10.585)">
        <rect id="矩形_52" data-name="矩形 52" width="2.646" height="2.646" fill="#236eb4"/>
      </g>
      <g id="组_27" data-name="组 27" transform="translate(15.878)">
        <rect id="矩形_53" data-name="矩形 53" width="2.646" height="2.646" fill="#236eb4"/>
      </g>
    </g>
    <g id="组_29" data-name="组 29" transform="translate(173.526 258.911)">
      <rect id="矩形_54" data-name="矩形 54" width="24.921" height="2.646" fill="#236eb4"/>
    </g>
    <g id="组_30" data-name="组 30" transform="translate(176.724 258.91)">
      <path id="路径_30" data-name="路径 30" d="M175.973,251.8H157.448V233.273h18.525Zm-15.878-2.646h13.232V235.919H160.094Z" transform="translate(-157.448 -233.273)" fill="#236eb4"/>
    </g>
    <g id="组_31" data-name="组 31" transform="translate(182.017 269.497)">
      <rect id="矩形_55" data-name="矩形 55" width="7.939" height="2.646" fill="#236eb4"/>
    </g>
    <g id="组_32" data-name="组 32" transform="translate(182.017 264.204)">
      <rect id="矩形_56" data-name="矩形 56" width="7.939" height="2.646" fill="#236eb4"/>
    </g>
  </g>
</svg>
