<svg xmlns="http://www.w3.org/2000/svg" width="378.587" height="77.8" viewBox="0 0 378.587 77.8">
  <path id="Contact" d="M371.1,1.9c-6.5,0-11.407-2.019-14.579-6-2.867-3.6-4.321-8.814-4.321-15.5V-43.9h-7.9V-55.761l8.749-.7,1.7-15.135H367.9v15.1h13.8v12.6H367.9v24.3c0,3.039.609,5.321,1.811,6.782A6.4,6.4,0,0,0,375-10.7a15.812,15.812,0,0,0,5.314-1.164l.545-.218L383.487-.369l-.429.143A36.513,36.513,0,0,1,371.1,1.9ZM345.3-44.9h7.9v25.3C353.2-6,359.222.9,371.1.9a35.072,35.072,0,0,0,11.213-1.933l-2.175-9.7A16.368,16.368,0,0,1,375-9.7c-5.375,0-8.1-3.331-8.1-9.9V-44.9h13.8V-55.5H366.9V-70.6H355.647l-1.7,15.065-8.651.7ZM322.9,1.9A29.676,29.676,0,0,1,311.911-.113a25.164,25.164,0,0,1-8.832-5.863C297.859-11.343,295.1-18.959,295.1-28a33.016,33.016,0,0,1,2.369-12.631,27.312,27.312,0,0,1,6.385-9.405A29.169,29.169,0,0,1,324.2-57.9a24.519,24.519,0,0,1,9.391,1.825,27.083,27.083,0,0,1,7.234,4.494l.354.3-7.6,10.308-.409-.35C330.247-43.829,327.8-44.9,325-44.9c-8.314,0-13.9,6.792-13.9,16.9,0,9.95,5.51,16.9,13.4,16.9,4.424,0,8.195-2.384,10.579-4.383l.446-.374L341.946-5.3l-.318.277A27.86,27.86,0,0,1,332.566.234,29.366,29.366,0,0,1,322.9,1.9Zm1.3-58.8c-13.964,0-28.1,9.927-28.1,28.9C296.1-10.714,306.87.9,322.9.9a27.9,27.9,0,0,0,17.752-6.4l-5.38-8.845c-2.524,2.019-6.32,4.249-10.772,4.249a13.236,13.236,0,0,1-5.763-1.277,13.328,13.328,0,0,1-4.574-3.631,17.009,17.009,0,0,1-2.992-5.649A24.185,24.185,0,0,1,310.1-28c0-5.257,1.414-9.738,4.09-12.957a13.457,13.457,0,0,1,4.721-3.654A14.389,14.389,0,0,1,325-45.9c2.886,0,5.5,1.075,8.414,3.474l6.406-8.693A24,24,0,0,0,324.2-56.9ZM253.8,1.9a18.678,18.678,0,0,1-7-1.294,15.71,15.71,0,0,1-5.408-3.594,15.924,15.924,0,0,1-3.471-5.43A18.706,18.706,0,0,1,236.7-15.2a16.012,16.012,0,0,1,7.9-14.371c5.178-3.329,13.152-5.547,24.365-6.775-.462-5.889-3.433-8.754-9.069-8.754-5.343,0-10.439,2.515-15.15,5.233l-.443.256-5.772-10.564.4-.25c7.985-4.96,15.946-7.475,23.664-7.475,7.206,0,12.741,2.169,16.453,6.447C282.734-47.209,284.6-40.9,284.6-32.7V.5H271.676L270.7-5.346C264.916-.471,259.383,1.9,253.8,1.9Zm6.1-48c3.382,0,5.957,1,7.653,2.961A11.784,11.784,0,0,1,270-35.927l.026.474-.472.05c-11.306,1.2-19.29,3.384-24.407,6.673A15.076,15.076,0,0,0,237.7-15.2c0,9.479,6.621,16.1,16.1,16.1,5.438,0,10.86-2.381,16.575-7.28l.14-.12h1.008l1,6H283.6V-32.7c0-7.952-1.784-14.041-5.3-18.1s-8.794-6.1-15.7-6.1c-7.4,0-15.045,2.381-22.734,7.077l4.828,8.836a49.859,49.859,0,0,1,7.331-3.556A22.392,22.392,0,0,1,259.9-46.1Zm-39.1,48c-6.5,0-11.406-2.019-14.579-6-2.867-3.6-4.321-8.814-4.321-15.5V-43.9H194V-55.761l8.749-.7,1.7-15.135H217.6v15.1h13.8v12.6H217.6v24.3c0,3.039.609,5.321,1.811,6.782A6.4,6.4,0,0,0,224.7-10.7a15.812,15.812,0,0,0,5.314-1.164l.545-.218L233.187-.369l-.429.143A36.513,36.513,0,0,1,220.8,1.9ZM195-44.9h7.9v25.3C202.9-6,208.922.9,220.8.9a35.072,35.072,0,0,0,11.213-1.933l-2.175-9.7A16.368,16.368,0,0,1,224.7-9.7c-5.375,0-8.1-3.331-8.1-9.9V-44.9h13.8V-55.5H216.6V-70.6H205.347l-1.7,15.065-8.651.7ZM97,1.9A27.011,27.011,0,0,1,86.7-.116a26.289,26.289,0,0,1-8.756-5.858,27.659,27.659,0,0,1-6.076-9.4A34.331,34.331,0,0,1,69.6-28a34.331,34.331,0,0,1,2.269-12.624,27.658,27.658,0,0,1,6.076-9.4A26.289,26.289,0,0,1,86.7-55.884,27.011,27.011,0,0,1,97-57.9a27.011,27.011,0,0,1,10.3,2.016,26.289,26.289,0,0,1,8.756,5.858,27.658,27.658,0,0,1,6.076,9.4A34.331,34.331,0,0,1,124.4-28a34.331,34.331,0,0,1-2.269,12.624,27.658,27.658,0,0,1-6.076,9.4A26.289,26.289,0,0,1,107.3-.116,27.011,27.011,0,0,1,97,1.9Zm0-58.8c-13.119,0-26.4,9.927-26.4,28.9S83.881.9,97,.9,123.4-9.027,123.4-28,110.119-56.9,97-56.9ZM39.3,1.9A35.449,35.449,0,0,1,25.926-.616,31.2,31.2,0,0,1,14.976-8.042C8.384-14.956,4.9-24.866,4.9-36.7A47.512,47.512,0,0,1,7.676-53.214a35.928,35.928,0,0,1,7.548-12.329A33.4,33.4,0,0,1,39.8-75.9a29.365,29.365,0,0,1,12.791,2.924,32.446,32.446,0,0,1,9.27,6.73l.307.32L53.846-55.767l-.39-.37C49.09-60.273,44.846-62.2,40.1-62.2,28.676-62.2,21-52.153,21-37.2c0,15.606,7.2,25.3,18.8,25.3,5.579,0,10.464-2.336,14.934-7.141l.383-.412L63.557-9.5l-.278.324A30.4,30.4,0,0,1,39.3,1.9Zm.5-76.8C19.84-74.9,5.9-59.192,5.9-36.7S19.322.9,39.3.9A29.4,29.4,0,0,0,62.241-9.5L55.08-17.951C50.514-13.208,45.511-10.9,39.8-10.9a17.46,17.46,0,0,1-14.436-7.061C21.855-22.592,20-29.244,20-37.2c0-7.764,1.974-14.342,5.709-19.024A18.494,18.494,0,0,1,32.094-61.4,18.151,18.151,0,0,1,40.1-63.2a17.257,17.257,0,0,1,7.745,1.8,24.962,24.962,0,0,1,5.907,4.17l7.079-8.642A29.594,29.594,0,0,0,39.8-74.9ZM185.6.5H169.9V-33.1c0-4.271-.571-7.076-1.8-8.826-1.135-1.62-2.915-2.374-5.6-2.374-4.28,0-7.013,1.938-11.1,6.007V.5H135.7v-57h12.931l1.058,7.117a35.258,35.258,0,0,1,7.762-5.858A21.44,21.44,0,0,1,167.8-57.9c6.039,0,10.611,2.075,13.592,6.168a20.5,20.5,0,0,1,3.192,7.249A40.8,40.8,0,0,1,185.6-34.9Zm-14.7-1h13.7V-34.9c0-7.118-1.351-12.583-4.017-16.243C177.8-54.963,173.5-56.9,167.8-56.9c-7.988,0-13.735,4.627-17.85,8.657l-.146.143h-.935l-1.1-7.4H136.7v55h13.7V-38.707l.146-.146a30.362,30.362,0,0,1,5.713-4.765A11.855,11.855,0,0,1,162.5-45.3c3.043,0,5.083.89,6.422,2.8,1.349,1.926,1.978,4.913,1.978,9.4Zm87.7-9.1c-5.021,0-7.9-2.478-7.9-6.8a7.265,7.265,0,0,1,1-3.766,9.573,9.573,0,0,1,3.245-3.145c3.075-1.92,7.815-3.256,14.491-4.085l.562-.07v12.077l-.151.147C266.366-11.855,263.12-9.6,258.6-9.6ZM269-26.332c-6.232.814-10.659,2.081-13.523,3.869-2.542,1.587-3.777,3.571-3.777,6.063,0,5.046,4.323,5.8,6.9,5.8,4.119,0,7.149-2.077,10.4-5.212ZM97-10.1a10.666,10.666,0,0,1-9.215-4.947C85.7-18.159,84.6-22.638,84.6-28c0-5.325,1.1-9.79,3.184-12.915A10.664,10.664,0,0,1,97-45.9a10.664,10.664,0,0,1,9.216,4.985C108.3-37.79,109.4-33.325,109.4-28c0,5.362-1.1,9.841-3.185,12.953A10.666,10.666,0,0,1,97-10.1Zm0-34.8a9.7,9.7,0,0,0-8.384,4.54C86.643-37.4,85.6-33.126,85.6-28c0,5.163,1.043,9.45,3.016,12.4A9.705,9.705,0,0,0,97-11.1a9.705,9.705,0,0,0,8.384-4.5c1.973-2.947,3.016-7.234,3.016-12.4,0-5.126-1.043-9.4-3.016-12.36A9.7,9.7,0,0,0,97-44.9Z" transform="translate(-4.9 75.9)" fill="#7db4e8"/>
</svg>
