<svg xmlns="http://www.w3.org/2000/svg" width="52.333" height="52.007" viewBox="0 0 52.333 52.007">
  <g id="contact-icon3" transform="translate(-147.071 -177.207)">
    <g id="组_34" data-name="组 34" transform="translate(162.422 177.207)">
      <path id="路径_31" data-name="路径 31" d="M154.394,187.818l-1.675-2.139,10.814-8.472,10.351,8.108-1.675,2.139-8.677-6.795Z" transform="translate(-152.719 -177.207)" fill="#236eb4"/>
    </g>
    <g id="组_35" data-name="组 35" transform="translate(147.071 192.946)">
      <path id="路径_32" data-name="路径 32" d="M199.4,219.266H147.071V187.753L153.144,183l1.675,2.139-5.03,3.94v27.471h46.9V189.078l-5.031-3.94L193.33,183l6.074,4.755Z" transform="translate(-147.071 -182.998)" fill="#236eb4"/>
    </g>
    <g id="组_36" data-name="组 36" transform="translate(147.672 209.565)">
      <path id="路径_33" data-name="路径 33" d="M196.908,208.531l-24.051-16.145-24.049,16.145-1.515-2.256,25.565-17.162,25.566,17.162Z" transform="translate(-147.292 -189.113)" fill="#236eb4"/>
    </g>
    <g id="组_37" data-name="组 37" transform="translate(147.672 197.847)">
      <rect id="矩形_57" data-name="矩形 57" width="2.718" height="25.907" transform="translate(0 2.256) rotate(-56.125)" fill="#236eb4"/>
    </g>
    <g id="组_38" data-name="组 38" transform="translate(175.779 197.843)">
      <rect id="矩形_58" data-name="矩形 58" width="25.908" height="2.718" transform="matrix(0.83, -0.558, 0.558, 0.83, 0, 14.448)" fill="#236eb4"/>
    </g>
    <g id="组_39" data-name="组 39" transform="translate(152.622 185.026)">
      <path id="路径_34" data-name="路径 34" d="M190.343,197.761h-2.718V182.8H151.831v14.959h-2.718V180.084h41.23Z" transform="translate(-149.113 -180.084)" fill="#236eb4"/>
    </g>
    <g id="组_40" data-name="组 40" transform="translate(160.891 192.065)">
      <rect id="矩形_59" data-name="矩形 59" width="24.721" height="2.718" fill="#236eb4"/>
    </g>
    <g id="组_41" data-name="组 41" transform="translate(160.891 197.616)">
      <rect id="矩形_60" data-name="矩形 60" width="24.721" height="2.718" fill="#236eb4"/>
    </g>
    <g id="组_42" data-name="组 42" transform="translate(166.442 203.167)">
      <rect id="矩形_61" data-name="矩形 61" width="13.619" height="2.718" fill="#236eb4"/>
    </g>
  </g>
</svg>
