<svg xmlns="http://www.w3.org/2000/svg" width="333.8" height="77.8" viewBox="0 0 333.8 77.8">
  <path id="course-icon" d="M316.6,1.9A30.519,30.519,0,0,1,305.435-.127a25.993,25.993,0,0,1-9.027-5.883,26.85,26.85,0,0,1-6.023-9.413A35.032,35.032,0,0,1,288.2-28a33.974,33.974,0,0,1,2.242-12.412,28.6,28.6,0,0,1,5.959-9.421,26.306,26.306,0,0,1,8.51-5.977A24.557,24.557,0,0,1,314.8-57.9a25.285,25.285,0,0,1,10.357,2.05,20.465,20.465,0,0,1,7.5,5.707c3.951,4.782,6.04,11.505,6.04,19.444a28.138,28.138,0,0,1-.722,6.947l-.109.353H303.576c1.286,8.272,6.7,13,14.924,13a22.568,22.568,0,0,0,12.335-3.824l.446-.279,5.476,9.857-.373.258A35.7,35.7,0,0,1,316.6,1.9Zm-1.8-58.8c-12.584,0-25.6,10.81-25.6,28.9C289.2-10.714,300.211.9,316.6.9a34.664,34.664,0,0,0,18.841-5.856L330.917-13.1A23.28,23.28,0,0,1,318.5-9.4a18.376,18.376,0,0,1-5.915-.92,14.233,14.233,0,0,1-4.826-2.753,14.5,14.5,0,0,1-3.446-4.536,19.828,19.828,0,0,1-1.808-6.225l-.074-.565h34.689a30.208,30.208,0,0,0,.581-6.3C337.7-46.861,328.925-56.9,314.8-56.9ZM258.7,1.9A33.03,33.03,0,0,1,247.16-.358a36.362,36.362,0,0,1-10.077-5.756l-.365-.3,7.282-10,.407.318C249.651-12,254.319-10.1,259.1-10.1a9.411,9.411,0,0,0,5.842-1.531A4.651,4.651,0,0,0,266.7-15.5c0-1.589-.932-2.924-2.934-4.2a42.256,42.256,0,0,0-7.143-3.228q-.649-.25-1.3-.5c-2.9-1.1-7.133-2.905-10.316-5.782a15.412,15.412,0,0,1-3.607-4.718A14.536,14.536,0,0,1,240-40.3a16.767,16.767,0,0,1,1.512-7.1,15.991,15.991,0,0,1,4.318-5.583c3.854-3.216,9.238-4.916,15.57-4.916a29.052,29.052,0,0,1,11,2.174,36.12,36.12,0,0,1,8.3,4.828l.393.3L273.907-40.9l-.4-.29c-4.427-3.21-8.147-4.7-11.706-4.7a8.736,8.736,0,0,0-5.358,1.4A4.185,4.185,0,0,0,254.8-41c0,3.383,4.062,4.87,9.2,6.753.511.187,1.039.381,1.57.578,3.571,1.351,7.638,3.016,10.728,5.69A14.6,14.6,0,0,1,281.5-16.3a17.243,17.243,0,0,1-1.475,7.1,16.42,16.42,0,0,1-4.375,5.8C271.59.069,265.729,1.9,258.7,1.9ZM238.084-6.59A35.253,35.253,0,0,0,258.7.9c13.243,0,21.8-6.751,21.8-17.2,0-9.829-7.547-13.508-15.277-16.432-.525-.2-1.052-.389-1.562-.576C258.37-35.245,253.8-36.918,253.8-41a5.2,5.2,0,0,1,2.033-4.3,9.677,9.677,0,0,1,5.967-1.6c3.67,0,7.459,1.466,11.891,4.607L279.7-50.4c-5.885-4.374-11.877-6.5-18.3-6.5-12.2,0-20.4,6.671-20.4,16.6,0,9.174,7.844,13.334,14.678,15.933q.658.257,1.3.5c5.512,2.124,10.717,4.129,10.717,8.363a5.677,5.677,0,0,1-2.142,4.656C264.081-9.687,261.908-9.1,259.1-9.1c-4.889,0-9.635-1.874-14.9-5.89ZM152.9,1.9c-6.035,0-10.608-2.071-13.591-6.155C136.516-8.078,135.1-13.712,135.1-21V-56.5h15.7v33.6c0,9.3,2.918,11.2,7.3,11.2,4.268,0,7.133-1.748,10.9-6.669V-56.5h15.7V.5H171.764L170.7-7.231a29.1,29.1,0,0,1-7.605,6.5A20.2,20.2,0,0,1,152.9,1.9ZM136.1-55.5V-21c0,7.072,1.351,12.507,4.016,16.155C142.9-1.033,147.2.9,152.9.9c6.675,0,12.047-2.844,17.418-9.222l.15-.178h1.069l1.1,8H183.7v-55H170v37.468l-.1.134a21.568,21.568,0,0,1-5.533,5.5,11.318,11.318,0,0,1-6.265,1.7,9.215,9.215,0,0,1-3.7-.66,6.029,6.029,0,0,1-2.642-2.182c-1.339-1.944-1.963-4.917-1.963-9.359V-55.5ZM97,1.9A27.012,27.012,0,0,1,86.7-.116a26.289,26.289,0,0,1-8.756-5.858,27.658,27.658,0,0,1-6.076-9.4A34.33,34.33,0,0,1,69.6-28a34.33,34.33,0,0,1,2.269-12.624,27.658,27.658,0,0,1,6.076-9.4A26.289,26.289,0,0,1,86.7-55.884,27.012,27.012,0,0,1,97-57.9a27.012,27.012,0,0,1,10.3,2.016,26.289,26.289,0,0,1,8.756,5.858,27.658,27.658,0,0,1,6.076,9.4A34.33,34.33,0,0,1,124.4-28a34.33,34.33,0,0,1-2.269,12.624,27.658,27.658,0,0,1-6.076,9.4A26.289,26.289,0,0,1,107.3-.116,27.012,27.012,0,0,1,97,1.9Zm0-58.8c-13.119,0-26.4,9.927-26.4,28.9S83.881.9,97,.9,123.4-9.027,123.4-28,110.119-56.9,97-56.9ZM39.3,1.9A35.449,35.449,0,0,1,25.926-.616,31.2,31.2,0,0,1,14.976-8.042C8.384-14.956,4.9-24.866,4.9-36.7A47.512,47.512,0,0,1,7.676-53.214a35.929,35.929,0,0,1,7.548-12.329A33.4,33.4,0,0,1,39.8-75.9a29.366,29.366,0,0,1,12.791,2.924,32.446,32.446,0,0,1,9.27,6.73l.307.32L53.846-55.767l-.39-.37C49.09-60.273,44.846-62.2,40.1-62.2,28.676-62.2,21-52.153,21-37.2c0,15.606,7.2,25.3,18.8,25.3,5.579,0,10.464-2.336,14.934-7.141l.383-.412L63.557-9.5l-.278.324A30.4,30.4,0,0,1,39.3,1.9Zm.5-76.8C19.84-74.9,5.9-59.192,5.9-36.7S19.322.9,39.3.9A29.4,29.4,0,0,0,62.241-9.5L55.08-17.951C50.514-13.208,45.511-10.9,39.8-10.9a17.46,17.46,0,0,1-14.436-7.061C21.855-22.592,20-29.244,20-37.2c0-7.764,1.974-14.342,5.709-19.024A18.5,18.5,0,0,1,32.094-61.4,18.151,18.151,0,0,1,40.1-63.2a17.257,17.257,0,0,1,7.745,1.8,24.963,24.963,0,0,1,5.907,4.17l7.079-8.642A29.594,29.594,0,0,0,39.8-74.9ZM215.1.5H199.4v-57h12.948l1.03,9.274c4.054-6.7,9.912-10.674,15.822-10.674a16.279,16.279,0,0,1,6.79,1.238l.379.156-2.686,13.643-.528-.158A18.323,18.323,0,0,0,227.4-43.9c-5.141,0-9.734,3.958-12.3,10.593Zm-14.7-1h13.7V-33.492l.033-.086a19.553,19.553,0,0,1,6.075-8.755A11.791,11.791,0,0,1,227.4-44.9a18.834,18.834,0,0,1,5.515.767l2.314-11.757A15.5,15.5,0,0,0,229.2-56.9c-5.8,0-11.58,4.129-15.464,11.045l-.143.255h-1.04l-1.1-9.9H200.4ZM97-10.1a10.666,10.666,0,0,1-9.215-4.947C85.7-18.159,84.6-22.638,84.6-28c0-5.325,1.1-9.79,3.184-12.915A10.664,10.664,0,0,1,97-45.9a10.664,10.664,0,0,1,9.216,4.985C108.3-37.79,109.4-33.325,109.4-28c0,5.362-1.1,9.841-3.185,12.953A10.666,10.666,0,0,1,97-10.1Zm0-34.8a9.7,9.7,0,0,0-8.384,4.54C86.643-37.4,85.6-33.126,85.6-28c0,5.163,1.043,9.45,3.016,12.4A9.705,9.705,0,0,0,97-11.1a9.705,9.705,0,0,0,8.384-4.5c1.973-2.947,3.016-7.234,3.016-12.4,0-5.126-1.043-9.4-3.016-12.36A9.7,9.7,0,0,0,97-44.9ZM326.1-33.2H302.227l.077-.567a15.734,15.734,0,0,1,4.451-9.483A11.757,11.757,0,0,1,315-46.5c3.652,0,6.474,1.185,8.387,3.521,1.8,2.2,2.713,5.321,2.713,9.279Zm-22.719-1h21.714c-.155-7.293-3.726-11.3-10.095-11.3C309.031-45.5,304.519-41.085,303.381-34.2Z" transform="translate(-4.9 75.9)" fill="#7db4e8"/>
</svg>
