<svg xmlns="http://www.w3.org/2000/svg" width="483.8" height="82.2" viewBox="0 0 483.8 82.2">
  <path id="download-icon" d="M463,1.9a20.936,20.936,0,0,1-17.055-7.99C441.794-11.347,439.6-18.924,439.6-28a37.72,37.72,0,0,1,2-12.436,28.959,28.959,0,0,1,5.335-9.415,23.639,23.639,0,0,1,7.673-5.965A20.581,20.581,0,0,1,463.6-57.9c5.99,0,9.88,2.133,13.632,5.415L476.8-60.1V-80.3h15.6V.5H479.586l-1.067-5.625a28.638,28.638,0,0,1-6.911,4.873A19.453,19.453,0,0,1,463,1.9Zm.6-58.8a21.2,21.2,0,0,0-15.908,7.7C443.052-43.8,440.6-36.471,440.6-28,440.6-10.174,449.183.9,463,.9c5.031,0,10.553-2.573,15.151-7.058L478.3-6.3h1.018l1.1,5.8H491.4V-79.3H477.8v19.186l.569,10.022-.909-.841C473.588-54.515,469.75-56.9,463.6-56.9ZM398,1.9a18.678,18.678,0,0,1-7-1.294,15.71,15.71,0,0,1-5.408-3.594,15.924,15.924,0,0,1-3.471-5.43A18.7,18.7,0,0,1,380.9-15.2a16.012,16.012,0,0,1,7.9-14.371c5.178-3.329,13.152-5.547,24.365-6.775-.462-5.889-3.433-8.754-9.069-8.754-5.343,0-10.439,2.515-15.15,5.233l-.443.256-5.772-10.564.4-.249c7.985-4.96,15.946-7.475,23.664-7.475,7.206,0,12.742,2.169,16.453,6.447C426.934-47.209,428.8-40.9,428.8-32.7V.5H415.876L414.9-5.346C409.116-.471,403.583,1.9,398,1.9Zm6.1-48c3.382,0,5.957,1,7.653,2.961a11.785,11.785,0,0,1,2.446,7.212l.026.474-.472.05c-11.306,1.2-19.29,3.384-24.407,6.673A15.076,15.076,0,0,0,381.9-15.2C381.9-5.721,388.521.9,398,.9c5.438,0,10.86-2.381,16.575-7.28l.14-.12h1.009l1,6H427.8V-32.7c0-7.952-1.784-14.041-5.3-18.1s-8.794-6.1-15.7-6.1c-7.4,0-15.045,2.381-22.734,7.077l4.828,8.836a49.858,49.858,0,0,1,7.331-3.556A22.392,22.392,0,0,1,404.1-46.1Zm-57.7,48A27.011,27.011,0,0,1,336.1-.116a26.287,26.287,0,0,1-8.756-5.858,27.658,27.658,0,0,1-6.076-9.4A34.331,34.331,0,0,1,319-28a34.331,34.331,0,0,1,2.269-12.624,27.658,27.658,0,0,1,6.076-9.4,26.287,26.287,0,0,1,8.756-5.858A27.011,27.011,0,0,1,346.4-57.9a27.011,27.011,0,0,1,10.3,2.016,26.287,26.287,0,0,1,8.756,5.858,27.657,27.657,0,0,1,6.076,9.4A34.331,34.331,0,0,1,373.8-28a34.331,34.331,0,0,1-2.269,12.624,27.658,27.658,0,0,1-6.076,9.4A26.287,26.287,0,0,1,356.7-.116,27.011,27.011,0,0,1,346.4,1.9Zm0-58.8C333.281-56.9,320-46.973,320-28S333.281.9,346.4.9,372.8-9.027,372.8-28,359.519-56.9,346.4-56.9ZM305.3,1.9A16.329,16.329,0,0,1,298.637.647a11.028,11.028,0,0,1-4.466-3.6C292.037-5.874,291-10.043,291-15.7V-80.3h15.7v65.2a5.277,5.277,0,0,0,.818,3.216,1.954,1.954,0,0,0,1.582.784,7.785,7.785,0,0,0,1.9-.19l.507-.1,1.949,11.8-.368.151A20.239,20.239,0,0,1,305.3,1.9ZM292-79.3v63.6c0,5.437.974,9.413,2.979,12.155C297.165-.554,300.542.9,305.3.9a19.723,19.723,0,0,0,7.041-1.117l-1.651-10a8.315,8.315,0,0,1-1.59.116,2.963,2.963,0,0,1-2.368-1.166A6.135,6.135,0,0,1,305.7-15.1V-79.3ZM102.7,1.9A27.011,27.011,0,0,1,92.4-.116a26.287,26.287,0,0,1-8.756-5.858,27.658,27.658,0,0,1-6.076-9.4A34.331,34.331,0,0,1,75.3-28a34.331,34.331,0,0,1,2.269-12.624,27.658,27.658,0,0,1,6.076-9.4A26.287,26.287,0,0,1,92.4-55.884,27.011,27.011,0,0,1,102.7-57.9,27.011,27.011,0,0,1,113-55.884a26.287,26.287,0,0,1,8.756,5.858,27.658,27.658,0,0,1,6.076,9.4A34.331,34.331,0,0,1,130.1-28a34.331,34.331,0,0,1-2.269,12.624,27.658,27.658,0,0,1-6.076,9.4A26.287,26.287,0,0,1,113-.116,27.011,27.011,0,0,1,102.7,1.9Zm0-58.8c-13.119,0-26.4,9.927-26.4,28.9S89.581.9,102.7.9,129.1-9.027,129.1-28,115.819-56.9,102.7-56.9ZM276.8.5H261.1V-33.1c0-4.271-.571-7.076-1.8-8.826-1.135-1.62-2.915-2.374-5.6-2.374-4.28,0-7.013,1.938-11.1,6.007V.5H226.9v-57h12.931l1.058,7.117a35.258,35.258,0,0,1,7.762-5.858A21.44,21.44,0,0,1,259-57.9c6.039,0,10.611,2.075,13.592,6.168a20.5,20.5,0,0,1,3.192,7.249A40.8,40.8,0,0,1,276.8-34.9Zm-14.7-1h13.7V-34.9c0-7.118-1.351-12.583-4.017-16.243C269-54.963,264.7-56.9,259-56.9c-7.988,0-13.736,4.627-17.85,8.657L241-48.1h-.935l-1.1-7.4H227.9v55h13.7V-38.707l.146-.146a30.359,30.359,0,0,1,5.713-4.765A11.855,11.855,0,0,1,253.7-45.3c3.043,0,5.083.89,6.422,2.8,1.349,1.926,1.978,4.913,1.978,9.4ZM203.292.5H185.206l-5.994-24.79c-1-4.435-1.815-8.818-2.673-13.458l-.288-1.557q-.367,2.01-.7,3.921c-.681,3.842-1.325,7.471-2.161,11.1L167.6.5H150.013l-.1-.375L135.254-56.5H151l6.189,28c.655,3.274,1.179,6.544,1.686,9.706.268,1.673.543,3.39.84,5.125l.125-.642c.954-4.893,1.855-9.515,3.074-14.215L169.808-56.5h13.781l7.1,27.985c.849,3.592,1.554,7.021,2.3,10.652.3,1.479.617,3,.94,4.53.389-2.226.754-4.424,1.108-6.561.465-2.8.945-5.7,1.472-8.6l0-.018L202.7-56.5h14.64Zm-17.3-1h16.515l13.554-55H203.5L197.49-28.3c-.525,2.887-1,5.777-1.468,8.571-.421,2.537-.856,5.161-1.33,7.818l-.074.412H193.3l-.085-.4c-.418-1.952-.817-3.891-1.2-5.766-.745-3.622-1.449-7.043-2.294-10.62l-6.9-27.219H170.592l-6.708,27.225c-1.211,4.671-2.109,9.279-3.061,14.157q-.215,1.1-.433,2.214l-.079.4h-1.23l-.074-.412c-.407-2.28-.769-4.538-1.119-6.721-.505-3.151-1.027-6.41-1.678-9.663L150.2-55.5H136.546l14.241,55H166.8l5.61-24.014c.83-3.6,1.472-7.215,2.151-11.044.3-1.686.608-3.43.945-5.234l.076-.408h1.331l.076.408q.272,1.462.531,2.862c.856,4.629,1.665,9,2.664,13.414ZM30.2.5H8.6V-74.6H29.4a48.86,48.86,0,0,1,15.411,2.26,30.724,30.724,0,0,1,11.71,6.9C63.143-59.076,66.5-49.61,66.5-37.3a49.478,49.478,0,0,1-2.557,16.5A31.288,31.288,0,0,1,56.628-8.959a30.447,30.447,0,0,1-11.471,7.1A44.788,44.788,0,0,1,30.2.5ZM9.6-.5H30.2c22.434,0,35.3-13.413,35.3-36.8,0-23.748-12.483-36.3-36.1-36.3H9.6ZM402.8-9.6c-5.021,0-7.9-2.479-7.9-6.8a7.265,7.265,0,0,1,1-3.766,9.573,9.573,0,0,1,3.245-3.145c3.075-1.92,7.815-3.256,14.491-4.085l.562-.07v12.077l-.151.147C410.566-11.855,407.32-9.6,402.8-9.6Zm10.4-16.732c-6.232.814-10.659,2.081-13.523,3.869-2.542,1.587-3.777,3.571-3.777,6.063,0,5.046,4.323,5.8,6.9,5.8,4.119,0,7.149-2.077,10.4-5.212ZM346.4-10.1a10.666,10.666,0,0,1-9.215-4.947C335.1-18.159,334-22.638,334-28c0-5.325,1.1-9.79,3.184-12.915A10.664,10.664,0,0,1,346.4-45.9a10.664,10.664,0,0,1,9.216,4.985C357.7-37.79,358.8-33.325,358.8-28c0,5.362-1.1,9.841-3.185,12.953A10.666,10.666,0,0,1,346.4-10.1Zm0-34.8a9.7,9.7,0,0,0-8.384,4.54C336.043-37.4,335-33.126,335-28c0,5.163,1.043,9.45,3.015,12.4a9.705,9.705,0,0,0,8.385,4.5,9.705,9.705,0,0,0,8.385-4.5c1.973-2.947,3.015-7.234,3.015-12.4,0-5.126-1.043-9.4-3.016-12.36A9.7,9.7,0,0,0,346.4-44.9ZM102.7-10.1a10.666,10.666,0,0,1-9.215-4.947C91.4-18.159,90.3-22.638,90.3-28c0-5.325,1.1-9.79,3.184-12.915A10.664,10.664,0,0,1,102.7-45.9a10.664,10.664,0,0,1,9.216,4.985C114-37.79,115.1-33.325,115.1-28c0,5.362-1.1,9.841-3.185,12.953A10.666,10.666,0,0,1,102.7-10.1Zm0-34.8a9.7,9.7,0,0,0-8.384,4.54C92.343-37.4,91.3-33.126,91.3-28c0,5.163,1.043,9.45,3.015,12.4a9.705,9.705,0,0,0,8.385,4.5,9.705,9.705,0,0,0,8.385-4.5c1.973-2.947,3.015-7.234,3.015-12.4,0-5.126-1.043-9.4-3.016-12.36A9.7,9.7,0,0,0,102.7-44.9ZM466.8-10.2a10.248,10.248,0,0,1-8.988-4.569C455.747-17.8,454.7-22.286,454.7-28.1c0-5.393,1.222-9.921,3.533-13.094A10.5,10.5,0,0,1,466.8-45.8a15.469,15.469,0,0,1,5.463.969,16.752,16.752,0,0,1,5.373,3.361l.163.149v24.994l-.107.136a16.827,16.827,0,0,1-5.182,4.607A11.785,11.785,0,0,1,466.8-10.2Zm0-34.6a9.522,9.522,0,0,0-7.758,4.194c-2.186,3-3.342,7.325-3.342,12.506,0,7.71,1.926,16.9,11.1,16.9,3.9,0,6.986-1.689,10-5.474v-24.2A14.494,14.494,0,0,0,466.8-44.8ZM28.5-11.4H23.4V-62.7h5.1a29.982,29.982,0,0,1,9.481,1.371,17.994,17.994,0,0,1,7.252,4.442,19.8,19.8,0,0,1,4.584,7.908A38.547,38.547,0,0,1,51.4-37.3a39.08,39.08,0,0,1-1.583,11.714,20.715,20.715,0,0,1-4.579,8.08C41.409-13.455,35.777-11.4,28.5-11.4Zm-4.1-1h4.1c6.991,0,12.378-1.949,16.012-5.793C48.419-22.328,50.4-28.756,50.4-37.3s-1.979-14.9-5.882-18.888C40.89-59.9,35.651-61.7,28.5-61.7H24.4Z" transform="translate(-8.6 80.3)" fill="#7db4e8"/>
</svg>
