<svg xmlns="http://www.w3.org/2000/svg" width="293.3" height="77.8" viewBox="0 0 293.3 77.8">
  <path id="enterprise-icon" d="M171.9,1.9A39.432,39.432,0,0,1,157.694-.613a32.184,32.184,0,0,1-11.437-7.423C139.481-14.891,135.9-24.8,135.9-36.7a46.928,46.928,0,0,1,2.808-16.516A35.482,35.482,0,0,1,146.4-65.548a33.138,33.138,0,0,1,11.451-7.7A37.229,37.229,0,0,1,171.9-75.9a32.624,32.624,0,0,1,13.874,2.959,32.072,32.072,0,0,1,9.384,6.691l.316.322L187.044-55.77l-.388-.367C183.327-59.286,179.3-62.2,172.4-62.2c-12.393,0-20.4,9.813-20.4,25,0,16.315,7.635,25.3,21.5,25.3,3.441,0,6.745-.967,8.7-2.535V-28.3H169.1V-41.4h27.3V-7.29l-.15.147a30.671,30.671,0,0,1-10.179,6.4A38.441,38.441,0,0,1,171.9,1.9Zm0-76.8c-20.935,0-35,15.351-35,38.2S150.638.9,171.9.9c9.132,0,17.9-3.216,23.5-8.611V-40.4H170.1v11.1h13.1v15.33l-.175.15c-2.1,1.8-5.751,2.92-9.525,2.92a25.075,25.075,0,0,1-9.792-1.807,18.357,18.357,0,0,1-7.069-5.237,22.89,22.89,0,0,1-4.236-8.294A39.5,39.5,0,0,1,151-37.2c0-7.817,2.059-14.4,5.955-19.034a19.115,19.115,0,0,1,6.784-5.173A20.843,20.843,0,0,1,172.4-63.2a19.758,19.758,0,0,1,8.639,1.836,23.626,23.626,0,0,1,5.915,4.137l7.172-8.643A30.822,30.822,0,0,0,171.9-74.9ZM92.5,1.9A33.923,33.923,0,0,1,78.86-.814,29.855,29.855,0,0,1,68.223-8.621C62.124-15.611,58.9-25.528,58.9-37.3s3.225-21.6,9.327-28.421A29.469,29.469,0,0,1,78.866-73.3,35.026,35.026,0,0,1,92.5-75.9a34.887,34.887,0,0,1,13.635,2.617,29.546,29.546,0,0,1,10.638,7.6c6.1,6.835,9.327,16.65,9.327,28.383,0,11.772-3.224,21.689-9.323,28.679A29.855,29.855,0,0,1,106.14-.814,33.923,33.923,0,0,1,92.5,1.9Zm0-76.8c-20.108,0-32.6,14.407-32.6,37.6S72.7.9,92.5.9s32.6-14.994,32.6-38.2C125.1-60.141,112.3-74.9,92.5-74.9ZM301.9.5H286.1L264.548-39.387l-6.916-14.662c.111,1.221.229,2.466.352,3.762.647,6.819,1.316,13.87,1.316,20.586V.5h-15V-74.6h15.9l21.657,39.79,6.8,14.712c-.113-1.187-.235-2.416-.361-3.694-.655-6.607-1.4-14.1-1.4-20.708V-74.6h15Zm-15.2-1h14.2V-73.6h-13v29.1c0,6.563.739,14.026,1.392,20.609.183,1.842.355,3.582.506,5.245l.05.545H288.48l-7.527-16.276L259.6-73.6H245.3V-.5h13V-29.7c0-6.668-.667-13.7-1.311-20.492-.174-1.831-.338-3.561-.487-5.265L256.454-56h1.363l7.629,16.174ZM227.1.5H211.3V-74.6h15.8Zm-14.8-1h13.8V-73.6H212.3ZM54.5.5H8.6V-74.6H24.4v61.7H54.5ZM9.6-.5H53.5V-11.9H23.4V-73.6H9.6ZM92.5-10.9a15.943,15.943,0,0,1-13.536-7.24C75.717-22.816,74-29.442,74-37.3s1.718-14.416,4.969-18.954A16.043,16.043,0,0,1,92.5-63.2a16.043,16.043,0,0,1,13.531,6.946C109.282-51.716,111-45.162,111-37.3s-1.717,14.484-4.964,19.16A15.943,15.943,0,0,1,92.5-10.9Zm0-51.3a15.079,15.079,0,0,0-12.719,6.529C76.653-51.3,75-44.952,75-37.3s1.655,14.081,4.786,18.59A14.98,14.98,0,0,0,92.5-11.9a14.98,14.98,0,0,0,12.714-6.81C108.345-23.219,110-29.647,110-37.3s-1.653-14-4.781-18.371A15.079,15.079,0,0,0,92.5-62.2Z" transform="translate(-8.6 75.9)" fill="#7db4e8"/>
</svg>
