<svg xmlns="http://www.w3.org/2000/svg" width="420.061" height="75.1" viewBox="0 0 420.061 75.1">
  <path id="enterprise-icon1" d="M428.661.5H411l-15.2-28h-9.5V.5H370.5V-74.6h26.3c8.552,0,15.28,1.67,20,4.965,5.508,3.846,8.3,9.914,8.3,18.035a23.708,23.708,0,0,1-3.953,13.861,22.021,22.021,0,0,1-9.928,7.69ZM411.6-.5h15.341L409.778-30.556l.541-.21c9.016-3.5,13.781-10.7,13.781-20.834,0-7.775-2.649-13.567-7.874-17.215C411.679-71.99,405.143-73.6,396.8-73.6H371.5V-.5h13.8v-28h11.1ZM356.5.5H309V-74.6h46.4v13.4H324.8v16.1h26v13.4h-26v18.8h31.7ZM310-.5h45.5V-11.9H323.8V-32.7h26V-44.1h-26V-62.2h30.6V-73.6H310ZM267.8.5H240.9V-74.6h25c8.323,0,14.835,1.361,19.355,4.045,5.272,3.13,7.945,8.094,7.945,14.755a19.561,19.561,0,0,1-2.76,9.984,14.885,14.885,0,0,1-6.974,6.221,21.339,21.339,0,0,1,4.926,1.99,16.868,16.868,0,0,1,4.537,3.693A18.034,18.034,0,0,1,297-21.8a21.4,21.4,0,0,1-2.248,9.922,19.29,19.29,0,0,1-6.2,6.976C283.487-1.368,276.313.5,267.8.5Zm-25.9-1h25.9c8.307,0,15.284-1.806,20.176-5.222C293.3-9.44,296-14.85,296-21.8c0-8.9-4.8-14.944-13.516-17.014L282.1-38.9v-1.25l.335-.117c5.749-2.008,9.765-8.393,9.765-15.528,0-6.283-2.508-10.958-7.455-13.9-4.364-2.591-10.7-3.9-18.845-3.9h-24ZM223.7.5H209.2V-30.9c0-6.154.826-14.7,1.638-22.007l-5.269,15.279L194.049-6.2h-9.2L173.226-37.639l-5.052-14.9.08.774c.689,6.652,1.546,14.93,1.546,20.865V.5H155.5V-74.6h17.25l.12.329,12.6,34.706c1.034,2.972,2,6.11,2.929,9.146.442,1.44.9,2.922,1.356,4.374.678-2.034,1.312-4.123,1.927-6.149.742-2.443,1.508-4.968,2.344-7.371L206.447-74.6H223.7Zm-13.5-1h12.5V-73.6H207.153L194.971-39.233c-.828,2.381-1.592,4.9-2.331,7.33-.687,2.262-1.4,4.6-2.167,6.864l-.115.339h-1.223l-.111-.348c-.535-1.675-1.065-3.4-1.579-5.077-.929-3.026-1.889-6.154-2.916-9.108L172.05-73.6H156.5V-.5h12.3V-30.9c0-5.884-.854-14.134-1.54-20.762q-.191-1.849-.357-3.488l-.055-.55h1.311l6.013,17.734L185.548-7.2h7.8l11.279-30.769L210.744-55.7h1.417l-.064.557c-.883,7.727-1.9,17.466-1.9,24.243ZM141.5.5H94V-74.6h46.4v13.4H109.8v16.1h26v13.4h-26v18.8h31.7ZM95-.5h45.5V-11.9H108.8V-32.7h26V-44.1h-26V-62.2h30.6V-73.6H95ZM76.8.5H62.3V-30.9c0-6.154.826-14.7,1.638-22.007L58.669-37.628,47.149-6.2h-9.2L26.326-37.639l-5.052-14.9.08.774C22.043-45.114,22.9-36.835,22.9-30.9V.5H8.6V-74.6H25.85l.12.329,12.6,34.706c1.034,2.972,2,6.11,2.929,9.146.442,1.44.9,2.922,1.356,4.374.678-2.034,1.312-4.123,1.927-6.149.742-2.443,1.508-4.968,2.344-7.371L59.547-74.6H76.8ZM63.3-.5H75.8V-73.6H60.253L48.071-39.233c-.828,2.381-1.592,4.9-2.331,7.33-.687,2.262-1.4,4.6-2.167,6.864l-.115.339H42.235l-.111-.348c-.535-1.675-1.065-3.4-1.579-5.077-.929-3.026-1.889-6.154-2.916-9.108L25.15-73.6H9.6V-.5H21.9V-30.9c0-5.884-.854-14.134-1.54-20.762Q20.168-53.511,20-55.15l-.055-.55h1.311l6.013,17.734L38.648-7.2h7.8L57.729-37.969,63.844-55.7H65.26l-.064.557c-.883,7.727-1.9,17.466-1.9,24.243ZM266.5-10.9H255.7V-33.5h10.8c5.337,0,9.228.827,11.894,2.529a8.729,8.729,0,0,1,3.148,3.4A10.633,10.633,0,0,1,282.6-22.7c0,3.957-1.421,6.967-4.224,8.946C275.694-11.86,271.7-10.9,266.5-10.9Zm-9.8-1h9.8c4.988,0,8.789-.9,11.3-2.671s3.8-4.516,3.8-8.129c0-3.391-1.225-5.821-3.744-7.429-2.5-1.6-6.215-2.371-11.356-2.371h-9.8ZM395.4-39.2H385.3V-62.8h10.1c5.107,0,8.783.8,11.24,2.434,2.732,1.821,4.06,4.689,4.06,8.766,0,4.06-1.355,7.191-4.027,9.3C404.076-40.241,400.284-39.2,395.4-39.2Zm-9.1-1h9.1c4.653,0,8.237-.969,10.652-2.88s3.648-4.781,3.648-8.52c0-7.15-4.277-10.2-14.3-10.2h-9.1ZM264.8-43.4h-9.1V-63.2H265c4.671,0,8.028.718,10.263,2.2,2.38,1.573,3.537,4,3.537,7.4a8.884,8.884,0,0,1-3.421,7.459C273.008-44.322,269.449-43.4,264.8-43.4Zm-8.1-1h8.1c4.424,0,7.778-.853,9.971-2.534A7.932,7.932,0,0,0,277.8-53.6c0-3.048-1.01-5.2-3.088-6.57S269.469-62.2,265-62.2h-8.3Z" transform="translate(-8.6 74.6)" fill="#7db4e8"/>
</svg>
