<svg xmlns="http://www.w3.org/2000/svg" width="204.412" height="82.1" viewBox="0 0 204.412 82.1">
  <path id="link-icon" d="M213.012.5h-17.1L182.519-22.35,175.2-14.012V.5H159.7V-80.3h15.5v47.469L193.958-56.5h17.408L191.718-32.861Zm-16.526-1h14.7L190.482-32.939,209.234-55.5H194.442l-19.1,24.1H174.2V-79.3H160.7V-.5h13.5V-14.388l8.481-9.662ZM145.5.5H129.8V-33.1c0-4.271-.571-7.076-1.8-8.826-1.135-1.62-2.915-2.374-5.6-2.374-4.28,0-7.013,1.938-11.1,6.007V.5H95.6v-57h12.931l1.058,7.117a35.259,35.259,0,0,1,7.762-5.858A21.441,21.441,0,0,1,127.7-57.9c6.039,0,10.611,2.075,13.592,6.168a20.5,20.5,0,0,1,3.192,7.249A40.8,40.8,0,0,1,145.5-34.9Zm-14.7-1h13.7V-34.9c0-7.118-1.351-12.583-4.017-16.243C137.7-54.963,133.4-56.9,127.7-56.9c-7.988,0-13.735,4.627-17.85,8.657l-.146.143h-.935l-1.1-7.4H96.6v55h13.7V-38.707l.146-.146a30.361,30.361,0,0,1,5.713-4.765A11.855,11.855,0,0,1,122.4-45.3c3.043,0,5.083.89,6.422,2.8,1.35,1.926,1.978,4.913,1.978,9.4ZM80.9.5H65.2v-57H80.9ZM66.2-.5H79.9v-55H66.2ZM54.5.5H8.6V-74.6H24.4v61.7H54.5ZM9.6-.5H53.5V-11.9H23.4V-73.6H9.6Zm63.5-64a9.379,9.379,0,0,1-6.554-2.347A8.3,8.3,0,0,1,64-73.1a8.151,8.151,0,0,1,2.548-6.167A9.427,9.427,0,0,1,73.1-81.6a9.258,9.258,0,0,1,6.466,2.334A8.185,8.185,0,0,1,82.1-73.1a8.332,8.332,0,0,1-2.532,6.252A9.212,9.212,0,0,1,73.1-64.5Zm0-16.1c-4.845,0-8.1,3.014-8.1,7.5,0,4.546,3.255,7.6,8.1,7.6,4.785,0,8-3.054,8-7.6C81.1-77.586,77.885-80.6,73.1-80.6Z" transform="translate(-8.6 81.6)" fill="#7db4e8"/>
</svg>
