<svg xmlns="http://www.w3.org/2000/svg" width="277.9" height="77.8" viewBox="0 0 277.9 77.8">
  <path id="news-icon" d="M258.8,1.9A40.115,40.115,0,0,1,244.1-.948a39.065,39.065,0,0,1-12.648-8.091l-.337-.323,9.136-10.963.387.357C246.1-14.916,253-11.9,259.1-11.9c7.181,0,11.3-2.916,11.3-8a6.42,6.42,0,0,0-2.678-5.461,34.242,34.242,0,0,0-7.417-3.782l-.7-.3-9.9-4.2a27.655,27.655,0,0,1-10.495-7.195A19.5,19.5,0,0,1,234.4-54a20.237,20.237,0,0,1,7.352-15.619,25.367,25.367,0,0,1,8.258-4.612A32.363,32.363,0,0,1,260.5-75.9a34.275,34.275,0,0,1,12.763,2.5,32.2,32.2,0,0,1,10.793,7.15l.312.318-8.1,10.042-.39-.324C270.96-60.3,266.073-62.2,260.5-62.2a12.66,12.66,0,0,0-7.443,1.967A6.338,6.338,0,0,0,250.4-54.9c0,4.805,4.693,6.664,10.635,9.017l.56.222,9.7,4.1c4.946,2.033,8.552,4.51,11.02,7.572a18.1,18.1,0,0,1,3.1,5.7A23.223,23.223,0,0,1,286.5-21a21.175,21.175,0,0,1-7.358,16.113A25.921,25.921,0,0,1,270.427.074,35.656,35.656,0,0,1,258.8,1.9ZM232.485-9.441A38.867,38.867,0,0,0,258.8.9c15.721,0,26.7-9.006,26.7-21.9,0-9.433-4.5-15.489-14.59-19.638l-9.7-4.1-.545-.216a37.866,37.866,0,0,1-7.852-3.77A7.219,7.219,0,0,1,249.4-54.9a7.3,7.3,0,0,1,3.068-6.142A13.628,13.628,0,0,1,260.5-63.2a22.487,22.487,0,0,1,8.562,1.624,27.71,27.71,0,0,1,7.065,4.27l6.9-8.558A32.181,32.181,0,0,0,260.5-74.9c-14.544,0-25.1,8.79-25.1,20.9,0,11.047,7.989,16.668,14.691,19.438l9.9,4.2.7.3a34.807,34.807,0,0,1,7.646,3.917A7.431,7.431,0,0,1,271.4-19.9a7.893,7.893,0,0,1-3.215,6.6c-2.145,1.592-5.2,2.4-9.086,2.4-6.2,0-13.169-2.974-18.75-7.979ZM212.616.5H193.4l-8.39-37c-1.236-5.974-2.176-10.947-2.923-15.479-.89,5.065-1.82,10.269-2.9,15.479v.007L171,.5H152.087L137.7-74.6h16.03l5.97,36.63c.479,3.4.988,6.866,1.479,10.218.554,3.779,1.124,7.669,1.671,11.577,1.21-6.378,2.609-13.373,4.366-21.827l0-.014L175.9-74.6H189.4L197.989-38c1.026,4.872,2.032,10.02,3.006,15,.46,2.352.933,4.77,1.411,7.177,1.151-8.355,2.166-15.612,3.1-22.143v-.01l5.968-36.62H226.5ZM194.2-.5h17.585L225.3-73.6H212.325l-5.831,35.777c-.987,6.906-2.066,14.623-3.3,23.591l-.059.432H201.79l-.08-.4c-.575-2.877-1.145-5.792-1.7-8.61-.972-4.974-1.978-10.117-3-14.98L188.6-73.6H176.7l-8.507,35.809c-1.92,9.239-3.412,16.733-4.7,23.583l-.076.408h-1.251l-.059-.432c-.62-4.509-1.281-9.016-1.92-13.375-.491-3.351-1-6.817-1.479-10.218L152.875-73.6H138.9L152.913-.5H170.2l8.012-36.2c1.2-5.792,2.214-11.583,3.2-17.183l.073-.414h1.247l.067.422c.787,4.984,1.8,10.441,3.2,17.173ZM131,.5H83.5V-74.6h46.4v13.4H99.3v16.1h26v13.4h-26v18.8H131ZM84.5-.5H130V-11.9H98.3V-32.7h26V-44.1h-26V-62.2h30.6V-73.6H84.5ZM66.2.5H50.4L28.848-39.387,21.932-54.048c.111,1.221.229,2.466.352,3.762C22.931-43.467,23.6-36.416,23.6-29.7V.5H8.6V-74.6H24.5L46.154-34.81l6.8,14.712c-.113-1.187-.235-2.416-.361-3.694-.655-6.607-1.4-14.1-1.4-20.708V-74.6h15ZM51-.5H65.2V-73.6h-13v29.1c0,6.563.739,14.026,1.392,20.609.183,1.842.355,3.582.506,5.245l.05.545H52.78L45.253-34.376,23.9-73.6H9.6V-.5h13V-29.7c0-6.668-.667-13.7-1.311-20.492-.174-1.831-.338-3.561-.487-5.265L20.754-56h1.363l7.629,16.174Z" transform="translate(-8.6 75.9)" fill="#7db4e8"/>
</svg>
