<svg id="reset" xmlns="http://www.w3.org/2000/svg" width="22" height="25.341" viewBox="0 0 22 25.341">
  <g id="组_2" data-name="组 2">
    <path id="路径_2" data-name="路径 2" d="M6.75,16.938a8.221,8.221,0,0,1,2.42-5.83L7.218,9.155a11,11,0,0,0,6.408,18.686V25.064A8.259,8.259,0,0,1,6.75,16.938Zm19.25,0a11,11,0,0,0-11-11c-.083,0-.165.014-.248.014l1.5-1.5L14.313,2.5,9.5,7.313l4.812,4.813,1.939-1.939L14.766,8.7c.083,0,.165-.014.234-.014a8.245,8.245,0,0,1,1.375,16.376v2.778A10.984,10.984,0,0,0,26,16.938Z" transform="translate(-4 -2.5)" fill="#b6b6b6"/>
  </g>
</svg>
