<svg xmlns="http://www.w3.org/2000/svg" width="745.617" height="316.5" viewBox="0 0 745.617 316.5">
  <path id="路径_1" data-name="路径 1" d="M2221.617,1852.124H1476V1535.665c.821-.037,1.646-.048,2.464-.037,11.76.157,23,4.42,33.683,9.082,60.035,26.176,112.757,67.236,151.473,117.968,25.49,33.4,46.7,72.433,84.68,92.559,47.488,25.17,106.017,13.362,160.027,7.071,10.629-1.24,21.371-2.218,32.166-2.873,56.614-3.435,116.823,1.99,170.591,22.182,28.724,10.782,51.505,26.479,76.144,43.538C2197.926,1832.563,2212.869,1840.878,2221.617,1852.124Z" transform="translate(-1476 -1535.624)" fill="#236eb4"/>
</svg>
