<svg xmlns="http://www.w3.org/2000/svg" width="1911.34" height="139.24" viewBox="0 0 1911.34 139.24">
  <path id="TAICHUNG_TRAVEL_AG" data-name="TAICHUNG TRAVEL AG" d="M1872.54,3.02a70.579,70.579,0,0,1-25.427-4.5,57.539,57.539,0,0,1-20.446-13.269,60.491,60.491,0,0,1-13.6-21.668,84.982,84.982,0,0,1-4.928-29.646,84.072,84.072,0,0,1,5.03-29.589,63.469,63.469,0,0,1,13.764-22.059,59.247,59.247,0,0,1,20.475-13.767,66.614,66.614,0,0,1,25.132-4.745,58.324,58.324,0,0,1,24.8,5.289,57.332,57.332,0,0,1,16.774,11.961l.316.322-14.669,17.678-.388-.367a42.282,42.282,0,0,0-10.985-7.854,34.193,34.193,0,0,0-14.951-3.17c-22.55,0-37.12,17.82-37.12,45.4,0,29.625,13.886,45.94,39.1,45.94,6.368,0,12.492-1.824,16.06-4.773V-51.34H1867.9V-74.12h48.34v60.83l-.15.147A54.808,54.808,0,0,1,1897.9-1.717a67.472,67.472,0,0,1-11.961,3.465A70.944,70.944,0,0,1,1872.54,3.02Zm0-138.24a65.618,65.618,0,0,0-24.756,4.672,58.256,58.256,0,0,0-20.132,13.536A62.477,62.477,0,0,0,1814.106-95.3a83.076,83.076,0,0,0-4.966,29.238c0,21.038,6.307,38.539,18.238,50.611A56.543,56.543,0,0,0,1847.472-2.41a69.588,69.588,0,0,0,25.068,4.43A69.954,69.954,0,0,0,1885.751.766a66.466,66.466,0,0,0,11.783-3.414,53.94,53.94,0,0,0,17.706-11.063V-73.12H1868.9v20.78h23.58v27.01l-.175.15c-3.714,3.183-10.184,5.16-16.886,5.16a44.742,44.742,0,0,1-17.469-3.22,32.645,32.645,0,0,1-12.571-9.313,40.808,40.808,0,0,1-7.548-14.785,70.7,70.7,0,0,1-2.512-19.622c0-13.975,3.674-25.734,10.625-34a34.009,34.009,0,0,1,12.07-9.2,37.121,37.121,0,0,1,15.425-3.192,35.174,35.174,0,0,1,15.379,3.265,42.629,42.629,0,0,1,10.856,7.666l13.411-16.162a56.251,56.251,0,0,0-16.165-11.433A57.336,57.336,0,0,0,1872.54-135.22ZM876.78,3.02a70.581,70.581,0,0,1-25.427-4.5,57.537,57.537,0,0,1-20.446-13.269,60.486,60.486,0,0,1-13.6-21.668A84.982,84.982,0,0,1,812.38-66.06a84.072,84.072,0,0,1,5.03-29.589,63.469,63.469,0,0,1,13.764-22.059,59.247,59.247,0,0,1,20.475-13.767,66.614,66.614,0,0,1,25.132-4.745,58.323,58.323,0,0,1,24.8,5.289,57.332,57.332,0,0,1,16.774,11.961l.316.322L904-100.97l-.388-.367a42.284,42.284,0,0,0-10.985-7.854,34.193,34.193,0,0,0-14.951-3.17c-22.549,0-37.12,17.82-37.12,45.4,0,29.625,13.886,45.94,39.1,45.94,6.368,0,12.492-1.824,16.06-4.773V-51.34H872.14V-74.12h48.34v60.83l-.15.147A54.808,54.808,0,0,1,902.141-1.717a67.468,67.468,0,0,1-11.96,3.465A70.945,70.945,0,0,1,876.78,3.02Zm0-138.24a65.618,65.618,0,0,0-24.756,4.672,58.257,58.257,0,0,0-20.132,13.536A62.478,62.478,0,0,0,818.346-95.3,83.077,83.077,0,0,0,813.38-66.06c0,21.038,6.307,38.539,18.238,50.611A56.536,56.536,0,0,0,851.712-2.41,69.581,69.581,0,0,0,876.78,2.02,69.954,69.954,0,0,0,889.991.766a66.467,66.467,0,0,0,11.783-3.414A53.939,53.939,0,0,0,919.48-13.711V-73.12H873.14v20.78h23.58v27.01l-.175.15c-3.714,3.183-10.184,5.16-16.885,5.16a44.741,44.741,0,0,1-17.469-3.22,32.644,32.644,0,0,1-12.571-9.313,40.807,40.807,0,0,1-7.548-14.785A70.7,70.7,0,0,1,839.56-66.96c0-13.975,3.674-25.734,10.625-34a34.009,34.009,0,0,1,12.07-9.2,37.121,37.121,0,0,1,15.425-3.192,35.174,35.174,0,0,1,15.379,3.265,42.632,42.632,0,0,1,10.856,7.666l13.411-16.162a56.251,56.251,0,0,0-16.164-11.433A57.336,57.336,0,0,0,876.78-135.22ZM601.2,3.02A62.49,62.49,0,0,1,579.255-.545a42.9,42.9,0,0,1-8.977-4.609,39.981,39.981,0,0,1-7.523-6.62,44.776,44.776,0,0,1-5.978-8.71,58.547,58.547,0,0,1-4.354-10.875c-2.365-8.055-3.564-17.67-3.564-28.581v-73.94H576.5V-57.6a75.286,75.286,0,0,0,1.747,17.371,30.6,30.6,0,0,0,4.948,11.264c4.02,5.346,9.91,7.945,18.005,7.945,8.3,0,14.357-2.6,18.5-7.951a30.209,30.209,0,0,0,5.108-11.262A72.866,72.866,0,0,0,626.62-57.6v-76.28h26.56v73.94a127.935,127.935,0,0,1-.88,15.458,85.254,85.254,0,0,1-2.6,13.12,58.791,58.791,0,0,1-4.273,10.875,44.459,44.459,0,0,1-5.891,8.711,39.392,39.392,0,0,1-7.446,6.622,42.239,42.239,0,0,1-8.923,4.61,53.234,53.234,0,0,1-10.32,2.691A73.843,73.843,0,0,1,601.2,3.02Zm-51.34-135.9v72.94c0,10.815,1.185,20.336,3.524,28.3a57.518,57.518,0,0,0,4.278,10.689,43.779,43.779,0,0,0,5.843,8.516,38.994,38.994,0,0,0,7.335,6.455,41.913,41.913,0,0,0,8.767,4.5A61.506,61.506,0,0,0,601.2,2.02a72.838,72.838,0,0,0,11.487-.861A52.23,52.23,0,0,0,622.812-1.48a41.236,41.236,0,0,0,8.712-4.5,38.375,38.375,0,0,0,7.257-6.454,43.456,43.456,0,0,0,5.758-8.515,57.8,57.8,0,0,0,4.2-10.689c2.284-7.943,3.443-17.465,3.443-28.3v-72.94H627.62V-57.6a73.853,73.853,0,0,1-1.837,17.609A31.193,31.193,0,0,1,620.5-28.359a20.272,20.272,0,0,1-8.372,6.405A28.592,28.592,0,0,1,601.2-20.02a26.888,26.888,0,0,1-10.664-1.935,19.728,19.728,0,0,1-8.141-6.409,31.581,31.581,0,0,1-5.121-11.63A76.28,76.28,0,0,1,575.5-57.6v-75.28ZM349.92,3.02A63.41,63.41,0,0,1,326-1.48a55.768,55.768,0,0,1-19.572-13.272C294.633-27.121,288.4-44.863,288.4-66.06a85.125,85.125,0,0,1,4.973-29.586,64.278,64.278,0,0,1,13.5-22.057,58.183,58.183,0,0,1,19.877-13.769,61.826,61.826,0,0,1,24.069-4.747A52.463,52.463,0,0,1,373.671-131a58,58,0,0,1,16.57,12.03l.307.32-.281.343-14.2,17.336-.39-.37a44.6,44.6,0,0,0-10.991-7.924,29.693,29.693,0,0,0-13.325-3.1c-20.8,0-34.78,18.245-34.78,45.4,0,28.337,13.12,45.94,34.24,45.94,10.16,0,19.049-4.246,27.174-12.98l.384-.412.364.429L393.057-17.1l-.278.324a56.872,56.872,0,0,1-19.045,14.73A55.866,55.866,0,0,1,349.92,3.02Zm.9-138.24c-16.774,0-32.123,6.465-43.219,18.2A63.28,63.28,0,0,0,294.31-95.3a84.132,84.132,0,0,0-4.91,29.24c0,20.935,6.138,38.438,17.749,50.617A54.777,54.777,0,0,0,326.373-2.407,62.415,62.415,0,0,0,349.92,2.02c16.709,0,30.777-6.433,41.822-19.123l-13.4-15.806C370.12-24.237,361.112-20.02,350.82-20.02c-10.569,0-19.445-4.34-25.666-12.55-6.263-8.266-9.574-20.158-9.574-34.39a66.185,66.185,0,0,1,2.7-19.393,43.9,43.9,0,0,1,7.49-14.6,32.893,32.893,0,0,1,11.355-9.208,32.273,32.273,0,0,1,14.236-3.2,30.671,30.671,0,0,1,13.765,3.2,45,45,0,0,1,10.848,7.728l13.239-16.161a56.981,56.981,0,0,0-15.972-11.5A51.467,51.467,0,0,0,350.82-135.22ZM1802.486.5h-28.967l-.1-.368L1764.158-33.7h-42.437L1712.362.5H1684.3l.208-.652,42.771-133.728h32.049l.111.347Zm-28.2-1h26.833L1758.6-132.88h-30.59L1685.665-.5H1711.6l9.36-34.2h43.963l.1.368ZM1638.5.5h-81.82V-133.88h27.64V-22.82h54.18Zm-80.82-1h79.82V-21.82h-54.18V-132.88h-25.64Zm-27,1h-84.7V-133.88h82.72v23.32h-55.08v29.78h46.8v23.32h-46.8v34.64h57.06Zm-83.7-1h82.7V-21.82h-57.06V-58.46h46.8V-79.78h-46.8v-31.78h55.08v-21.32h-80.72ZM1390.87.5h-32.6l-.108-.354L1317.285-133.88h28.958l.1.369,17.64,64.98c2.124,7.571,3.95,14.9,5.717,21.992,1.656,6.648,3.368,13.517,5.341,20.659h.143c2.263-7.854,4.163-15.388,6-22.677,1.625-6.444,3.306-13.108,5.233-19.978h0L1403.8-133.88h28.059l-.2.646Zm-31.86-1h31.119L1430.5-132.88h-25.94l-17.183,64.615c-1.924,6.858-3.6,13.515-5.226,19.953-1.869,7.409-3.8,15.071-6.115,23.071l-.1.361h-1.656l-.1-.366c-2.019-7.286-3.763-14.284-5.449-21.051-1.765-7.083-3.59-14.406-5.711-21.968l-17.541-64.615h-26.842Zm-35.325,1h-28.968l-.1-.368L1285.359-33.7h-42.437L1233.562.5H1205.5l.209-.652,42.771-133.728h32.05l.111.347Zm-28.2-1h26.833L1279.8-132.88H1249.2L1206.865-.5H1232.8l9.36-34.2h43.963l.1.368Zm-90.421,1H1174.2l-.142-.261L1146.843-49.9H1129.1V.5h-27.64V-133.88h46.94c15.31,0,27.344,2.983,35.769,8.865A32.442,32.442,0,0,1,1195-112.334a44.742,44.742,0,0,1,3.945,19.454c0,9.715-2.37,18.032-7.043,24.721a39.4,39.4,0,0,1-18.117,13.872ZM1174.8-.5h28.541l-31-54.3.541-.21c16.4-6.365,25.061-19.462,25.061-37.874a43.761,43.761,0,0,0-3.846-19.021,31.455,31.455,0,0,0-10.5-12.294c-8.253-5.763-20.095-8.685-35.2-8.685h-45.94V-.5h25.64V-50.9h19.338l.142.261ZM1043.06.5h-27.64V-110.56H977.98v-23.32h102.88v23.32h-37.8Zm-26.64-1h25.64V-111.56h37.8v-21.32H978.98v21.32h37.44ZM787.1.5H759.3L759.16.238l-38.532-71.3L707.263-99.4h-.037c.255,2.886.534,5.824.828,8.923,1.163,12.265,2.366,24.948,2.366,37.017V.5h-26.2V-133.88H712.2l.142.261L751.054-62.49,764.24-33.98h.033c-.259-2.823-.552-5.773-.86-8.885C762.235-54.748,760.9-68.217,760.9-80.1v-53.78h26.2Zm-27.2-1h26.2V-132.88H761.9V-80.1c0,11.834,1.332,25.276,2.507,37.136.329,3.315.639,6.446.911,9.438l.05.545H763.6l-.134-.29L750.152-62.057,711.6-132.88H685.22V-.5h24.2V-53.46c0-12.022-1.2-24.681-2.362-36.923-.313-3.3-.608-6.409-.876-9.474l-.048-.544H707.9l.135.287L721.527-71.5ZM517.82.5H490.36V-57.1h-49.4V.5H413.32V-133.88h27.64v52.56h49.4v-52.56h27.46Zm-26.46-1h25.46V-132.88H491.36v52.56h-51.4v-52.56H414.32V-.5h25.64V-58.1h51.4ZM263.3.5H235.66V-133.88H263.3Zm-26.64-1H262.3V-132.88H236.66ZM221.186.5H192.219l-.1-.368L182.858-33.7H140.422L131.061.5H103l.209-.652L145.975-133.88h32.05l.111.347Zm-28.2-1h26.833L177.3-132.88H146.705L104.365-.5H130.3l9.36-34.2h43.963l.1.368Zm-123,1H42.34V-110.56H4.9v-23.32H107.78v23.32H69.98ZM43.34-.5H68.98V-111.56h37.8v-21.32H5.9v21.32H43.34ZM1759.434-54.4h-32.987l4.133-15.217c4.1-14.351,8.02-29.406,11.334-43.537l.091-.386h1.682l.1.373c1.176,4.478,2.355,9.127,3.5,13.623,2.542,10.019,5.17,20.379,8.02,29.921l0,.012Zm-31.68-1h30.372l-3.788-13.947c-2.855-9.559-5.485-19.926-8.028-29.952-1.108-4.369-2.253-8.883-3.4-13.241h-.118c-3.3,14.032-7.187,28.957-11.254,43.191h0Zm-447.12,1h-32.987l.171-.631,3.962-14.586c4.1-14.353,8.02-29.408,11.334-43.537l.091-.386h1.682l.1.373c1.176,4.478,2.355,9.127,3.5,13.623,2.542,10.019,5.17,20.379,8.02,29.921l0,.012Zm-31.68-1h30.372l-3.788-13.947c-2.855-9.559-5.485-19.926-8.028-29.952-1.108-4.369-2.253-8.883-3.4-13.241H1264c-3.3,14.03-7.186,28.955-11.254,43.191h0Zm-1070.82,1H145.146l.171-.631,3.962-14.586c4.1-14.347,8.018-29.4,11.334-43.537l.091-.386h1.682l.1.373c1.175,4.478,2.355,9.127,3.5,13.623,2.542,10.019,5.17,20.379,8.02,29.921l0,.012Zm-31.68-1h30.372l-3.788-13.947c-2.855-9.559-5.485-19.926-8.028-29.952-1.108-4.369-2.253-8.883-3.4-13.241H161.5c-3.3,14.037-7.188,28.961-11.254,43.191h0ZM1145.88-70.96H1128.1v-41.68h17.78a57.018,57.018,0,0,1,11.477.995,23.808,23.808,0,0,1,8.532,3.319c4.8,3.2,7.13,8.251,7.13,15.446,0,7.18-2.388,12.709-7.1,16.435C1161.321-72.805,1154.578-70.96,1145.88-70.96Zm-16.78-1h16.78c8.467,0,15-1.773,19.422-5.27,4.457-3.526,6.718-8.792,6.718-15.65,0-6.835-2.187-11.615-6.685-14.614a22.843,22.843,0,0,0-8.179-3.172,56.044,56.044,0,0,0-11.276-.974H1129.1Z" transform="translate(-4.9 136.22)" fill="#e2e2e2"/>
</svg>
